<?xml version="1.0" encoding="UTF-8"?>
<svg width="68px" height="12px" viewBox="0 0 68 12" version="1.1" xmlns="http://www.w3.org/2000/svg" xmlns:xlink="http://www.w3.org/1999/xlink">
    <title>stars-5stars-filled</title>
    <g id="stars-5stars-filled" stroke="none" stroke-width="1" fill="none" fill-rule="evenodd">
        <g id="Shape" fill="#C39052">
            <g transform="translate(56.000000, 0.000000)">
                <polygon points="6.0000998 0 7.85396193 3.9505132 12 4.583924 8.9998512 7.65856173 9.70822273 12 6.0000998 9.9501152 2.29175693 12 3.0001494 7.65856173 0 4.583924 4.14583907 3.9505132"></polygon>
            </g>
            <g transform="translate(42.000000, 0.000000)">
                <polygon points="6.0000998 0 7.85396193 3.9505132 12 4.583924 8.9998512 7.65856173 9.70822273 12 6.0000998 9.9501152 2.29175693 12 3.0001494 7.65856173 0 4.583924 4.14583907 3.9505132"></polygon>
            </g>
            <g transform="translate(28.000000, 0.000000)">
                <polygon points="6.0000998 0 7.85396193 3.9505132 12 4.583924 8.9998512 7.65856173 9.70822273 12 6.0000998 9.9501152 2.29175693 12 3.0001494 7.65856173 0 4.583924 4.14583907 3.9505132"></polygon>
            </g>
            <g transform="translate(14.000000, 0.000000)">
                <polygon points="6.0000998 0 7.85396193 3.9505132 12 4.583924 8.9998512 7.65856173 9.70822273 12 6.0000998 9.9501152 2.29175693 12 3.0001494 7.65856173 0 4.583924 4.14583907 3.9505132"></polygon>
            </g>
            <g>
                <polygon points="6.0000998 0 7.85396193 3.9505132 12 4.583924 8.9998512 7.65856173 9.70822273 12 6.0000998 9.9501152 2.29175693 12 3.0001494 7.65856173 0 4.583924 4.14583907 3.9505132"></polygon>
            </g>
        </g>
    </g>
</svg>