<?xml version="1.0" encoding="UTF-8"?>
<svg width="68px" height="12px" viewBox="0 0 68 12" version="1.1" xmlns="http://www.w3.org/2000/svg" xmlns:xlink="http://www.w3.org/1999/xlink">
    <title>stars-empty</title>
    <g id="stars-empty" stroke="none" stroke-width="1" fill="none" fill-rule="evenodd">
        <g id="Shape" stroke="#C39052">
            <g transform="translate(56.000000, 0.000000)">
                <path d="M6.00005115,1.1768635 L7.51467897,4.40448065 L10.9625198,4.9312244 L8.46573574,7.48999966 L9.04892397,11.0642197 L6.00010697,9.3788053 L2.95105578,11.0642492 L3.53426589,7.49000069 L1.03747431,4.93121824 L4.48509675,4.40448258 L6.00005115,1.1768635 Z"></path>
            </g>
            <g transform="translate(42.000000, 0.000000)">
                <path d="M6.00005115,1.1768635 L7.51467897,4.40448065 L10.9625198,4.9312244 L8.46573574,7.48999966 L9.04892397,11.0642197 L6.00010697,9.3788053 L2.95105578,11.0642492 L3.53426589,7.49000069 L1.03747431,4.93121824 L4.48509675,4.40448258 L6.00005115,1.1768635 Z"></path>
            </g>
            <g transform="translate(28.000000, 0.000000)">
                <path d="M6.00005115,1.1768635 L7.51467897,4.40448065 L10.9625198,4.9312244 L8.46573574,7.48999966 L9.04892397,11.0642197 L6.00010697,9.3788053 L2.95105578,11.0642492 L3.53426589,7.49000069 L1.03747431,4.93121824 L4.48509675,4.40448258 L6.00005115,1.1768635 Z"></path>
            </g>
            <g transform="translate(14.000000, 0.000000)">
                <path d="M6.00005115,1.1768635 L7.51467897,4.40448065 L10.9625198,4.9312244 L8.46573574,7.48999966 L9.04892397,11.0642197 L6.00010697,9.3788053 L2.95105578,11.0642492 L3.53426589,7.49000069 L1.03747431,4.93121824 L4.48509675,4.40448258 L6.00005115,1.1768635 Z"></path>
            </g>
            <g>
                <path d="M6.00005115,1.1768635 L7.51467897,4.40448065 L10.9625198,4.9312244 L8.46573574,7.48999966 L9.04892397,11.0642197 L6.00010697,9.3788053 L2.95105578,11.0642492 L3.53426589,7.49000069 L1.03747431,4.93121824 L4.48509675,4.40448258 L6.00005115,1.1768635 Z"></path>
            </g>
        </g>
    </g>
</svg>